<?xml version="1.0" standalone="no"?>
<!DOCTYPE svg PUBLIC "-//W3C//DTD SVG 20010904//EN"
 "http://www.w3.org/TR/2001/REC-SVG-20010904/DTD/svg10.dtd">
<svg version="1.0" xmlns="http://www.w3.org/2000/svg"
 width="507.000000pt" height="463.000000pt" viewBox="0 0 507.000000 463.000000"
 preserveAspectRatio="xMidYMid meet">

<g transform="translate(0.000000,463.000000) scale(0.100000,-0.100000)"
fill="#000000" stroke="none">
<path d="M2500 3629 c0 -611 1 -622 73 -730 41 -62 60 -80 137 -131 71 -47
130 -58 300 -58 195 0 180 24 180 -289 0 -165 4 -252 11 -256 9 -6 79 42 219
153 73 58 90 71 190 147 47 35 92 70 100 78 35 31 174 133 203 149 28 15 73
17 392 18 225 0 377 5 405 11 25 7 52 12 60 13 48 7 190 116 190 146 0 6 6 10
14 10 12 0 36 45 40 75 1 6 7 26 13 45 6 19 14 94 17 165 3 72 8 171 12 220
l7 90 -39 21 c-22 12 -63 27 -93 34 -30 7 -66 19 -80 26 -14 8 -31 14 -36 14
-6 0 -74 21 -150 46 l-140 47 -420 8 c-231 4 -564 8 -739 8 -300 0 -321 1
-345 19 -21 16 -26 28 -25 65 1 80 -23 76 458 77 239 1 424 5 421 10 -3 5 -20
13 -38 18 -99 30 -212 62 -287 82 -47 12 -107 28 -135 36 -27 7 -88 23 -135
33 -47 11 -132 31 -190 45 -58 14 -145 32 -195 41 -49 9 -124 23 -165 31 -41
8 -110 17 -152 21 l-78 6 0 -544z m1847 -151 c45 -22 41 -116 -5 -138 -21 -10
-163 -12 -662 -11 -594 2 -637 3 -660 20 -33 24 -39 78 -11 112 l19 24 629 5
c345 3 637 4 648 2 11 -2 30 -8 42 -14z m670 -350 c-3 -8 -6 -5 -6 6 -1 11 2
17 5 13 3 -3 4 -12 1 -19z m10 -90 c-3 -7 -5 -2 -5 12 0 14 2 19 5 13 2 -7 2
-19 0 -25z"/>
<path d="M1833 3899 c-147 -25 -317 -154 -381 -291 -36 -76 -44 -79 -115 -49
-199 85 -451 40 -612 -110 -146 -138 -216 -316 -199 -515 l6 -81 -63 -22
c-173 -62 -324 -199 -395 -359 -47 -105 -64 -188 -64 -305 0 -303 157 -551
434 -686 144 -70 211 -83 436 -85 l195 -1 21 60 c29 80 59 131 107 182 23 24
38 46 34 50 -4 3 -44 19 -89 35 -184 64 -291 148 -359 282 -21 43 -39 93 -39
111 0 40 28 68 67 63 24 -3 33 -13 63 -75 69 -142 139 -200 316 -262 131 -46
194 -58 194 -37 0 8 -7 16 -15 20 -19 7 -104 121 -123 166 -42 99 -54 241 -27
343 21 82 56 146 115 210 101 110 225 165 392 173 55 2 105 7 110 10 18 12 38
73 38 118 0 52 -31 142 -62 182 -12 15 -59 51 -105 80 -78 51 -83 56 -83 89 0
41 35 71 73 61 36 -9 172 -103 208 -144 70 -80 111 -233 90 -334 -15 -67 -57
-144 -95 -171 -27 -19 -42 -22 -126 -19 -83 2 -105 -1 -178 -27 -135 -47 -212
-128 -254 -264 -53 -175 39 -357 226 -447 l80 -38 48 24 c26 13 70 29 98 35
42 9 50 14 45 27 -4 10 -9 53 -12 98 -6 90 5 140 44 192 28 38 70 43 98 12 19
-21 17 -47 -9 -118 -17 -44 -15 -81 6 -152 19 -62 26 -64 77 -18 66 58 135 87
228 96 l78 7 -3 830 c-3 945 6 851 -95 940 -115 101 -264 141 -424 114z m-591
-836 c23 -21 23 -65 1 -85 -10 -8 -44 -18 -76 -22 -71 -8 -111 -24 -156 -62
-36 -30 -81 -114 -81 -152 0 -38 -30 -92 -55 -98 -28 -7 -61 9 -75 36 -13 24
18 147 56 222 41 81 124 148 209 169 59 14 157 10 177 -8z"/>
<path d="M3979 2542 c-13 -6 -312 -236 -387 -298 l-26 -21 57 -83 c30 -46 94
-125 141 -176 91 -98 105 -133 70 -168 -32 -32 -66 -20 -134 49 -35 36 -68 65
-72 65 -4 0 -17 -19 -29 -42 -53 -108 -138 -198 -184 -198 -26 0 -65 42 -65
71 0 10 25 44 55 75 85 89 123 207 88 274 -31 60 -26 62 -236 -100 -69 -53
-83 -60 -123 -60 -37 0 -51 6 -75 29 l-29 29 0 160 c0 116 -3 162 -12 170 -7
5 -40 17 -73 27 -201 57 -394 -105 -455 -382 -10 -47 -21 -88 -25 -91 -4 -4
-59 -7 -123 -7 -101 0 -123 -3 -157 -21 -43 -23 -115 -89 -115 -104 0 -5 -10
-16 -23 -25 -22 -14 -29 -13 -82 5 -86 29 -165 27 -218 -7 -37 -24 -53 -28
-128 -29 -52 -1 -106 -8 -139 -19 -198 -66 -317 -274 -276 -487 16 -85 40
-137 97 -214 80 -109 192 -176 359 -215 85 -20 123 -23 345 -23 215 -1 270 2
393 22 219 35 386 79 525 139 110 46 123 45 181 -22 92 -107 241 -196 393
-234 216 -55 447 5 618 160 92 85 181 235 215 366 18 71 27 153 15 153 -2 0
-38 -11 -79 -25 -58 -19 -95 -25 -164 -25 -96 0 -198 24 -232 55 -23 20 -58
22 -189 7 -125 -15 -422 -15 -511 -2 -162 25 -152 26 -242 -18 -102 -49 -154
-64 -238 -66 -104 -2 -144 15 -235 99 -44 41 -90 77 -102 80 -29 7 -152 -43
-230 -95 -32 -20 -78 -59 -103 -85 -49 -51 -106 -85 -142 -85 -27 0 -62 27
-117 93 -45 52 -51 85 -23 110 32 29 70 21 111 -24 l37 -40 41 39 c114 111
326 222 424 222 46 0 122 -44 165 -95 58 -69 94 -88 167 -87 76 0 141 21 230
75 l69 40 91 -18 c118 -23 443 -32 577 -15 190 23 219 24 238 8 9 -8 40 -26
67 -39 42 -20 66 -24 145 -24 91 0 99 2 170 37 152 76 259 219 295 393 33 159
13 314 -57 450 -38 74 -104 162 -138 183 -14 9 -27 19 -30 23 -3 3 -30 19 -60
34 -49 26 -67 29 -170 32 -63 1 -122 -1 -131 -5z"/>
<path d="M2859 730 c-63 -21 -160 -45 -215 -54 -143 -24 -139 -23 -119 -53 25
-38 99 -126 179 -214 54 -58 213 -185 291 -231 131 -78 289 -137 450 -167 52
-10 64 5 35 41 -52 67 -100 185 -146 363 -21 84 -39 135 -51 143 -10 7 -52 35
-93 62 -41 26 -99 71 -129 99 -30 28 -61 51 -70 50 -9 -1 -68 -18 -132 -39z"/>
</g>
</svg>
