<svg width="812" height="767" viewBox="0 0 812 767" fill="none" xmlns="http://www.w3.org/2000/svg">
<path d="M248.647 765.941C232.647 763.141 229.981 741.107 230.647 730.441L238.647 696.941C251.447 652.941 253.314 618.607 252.647 606.941C247.847 566.141 214.981 548.941 199.147 545.441C167.947 539.441 149.147 533.607 143.647 531.441C65.1475 505.441 33.1475 448.941 33.1475 448.941C11.1475 423.441 0.480822 362.774 0.147503 336.441C-1.8525 296.841 16.9808 250.274 26.6475 231.941C34.2475 211.941 65.4808 175.941 80.1475 160.441C96.5475 146.441 126.981 119.941 140.148 108.441C160.948 82.8407 199.481 56.1073 216.148 45.9407C269.348 12.3407 341.647 2.27399 371.147 1.44065C443.948 -5.75935 519.148 15.774 547.648 27.4407C556.448 30.2407 603.648 56.6073 626.148 69.4407C630.548 73.0406 679.648 94.6073 703.648 104.941C793.247 148.941 812.981 256.941 811.648 305.441C810.448 382.641 767.814 434.607 746.648 450.941C703.048 494.941 616.314 512.941 578.148 516.441C528.148 515.641 493.647 542.107 482.647 555.441L318.647 717.941L278.647 756.941C269.848 766.541 254.981 766.941 248.647 765.941Z" fill="url(#paint0_linear_41_544)"/>
<path d="M686.147 167.941C742.547 193.541 758.314 235.607 759.147 253.441L758.647 254.941L757.647 254.441C748.847 239.641 725.647 224.274 715.147 218.441C679.947 200.841 640.814 194.441 625.647 193.441C580.047 190.641 563.647 187.607 561.147 186.441L533.147 179.441C509.547 175.041 462.647 144.274 442.147 129.441C400.947 101.441 355.314 96.1074 337.647 96.9408C302.047 95.3408 255.814 111.607 237.147 119.941L234.147 121.441L232.647 120.941L231.647 120.441L232.647 118.941C243.447 109.341 255.481 100.274 260.147 96.9408C292.147 73.3408 332.647 60.822 336.147 59.9407C391.747 45.9407 436.814 59.1074 451.647 66.9408C469.647 73.7408 517.147 107.441 538.647 123.441C559.447 137.441 590.647 145.607 603.647 147.941C650.847 153.541 678.314 163.607 686.147 167.941Z" fill="black"/>
<path d="M662.147 286.941C721.347 316.941 722.147 368.107 715.147 389.941L714.147 390.941H712.147L711.147 389.941C703.147 364.741 667.814 340.774 651.147 331.941C618.347 316.341 583.814 313.441 570.647 313.941C501.047 317.941 460.981 308.607 449.647 303.441C416.847 292.641 362.314 259.941 339.147 244.941C297.947 215.741 240.314 209.774 216.647 210.441C162.247 206.841 108.647 233.941 88.6475 247.941L86.6475 249.441H85.6475L84.6475 248.441L97.1475 232.441C130.747 188.441 190.814 169.774 216.647 165.941C280.647 154.341 343.647 176.774 367.147 189.441C382.347 199.041 436.481 228.774 461.647 242.441C494.847 262.441 548.147 267.107 570.647 266.941C615.047 266.141 650.147 279.941 662.147 286.941Z" fill="black"/>
<path d="M178.647 468.441C142.647 436.441 88.6475 423.107 66.1475 420.441L65.1475 419.941V418.941L66.1475 417.941C69.3475 415.141 83.8141 410.107 90.6475 407.941C110.247 401.141 137.814 403.107 149.147 404.941C173.947 407.341 209.481 425.941 224.147 434.941C257.747 463.741 308.814 480.607 330.147 485.441C352.947 491.841 393.981 488.774 411.647 486.441L412.647 485.941L414.147 485.441H416.647L417.147 485.941V486.941L416.147 487.941L412.147 490.941C399.747 499.741 374.981 508.607 364.147 511.941C316.547 524.741 275.981 517.274 261.647 511.941C224.447 500.341 190.814 478.107 178.647 468.441Z" fill="black"/>
<path d="M161.147 282.941C97.5475 286.941 56.9808 333.274 44.6475 355.941L44.1475 356.941L44.6475 357.441H45.6475L46.6475 356.941L51.1475 353.941C76.3475 339.141 104.647 333.441 115.647 332.441C144.047 327.641 176.481 333.774 189.147 337.441C218.747 343.441 262.814 370.274 281.147 382.941C340.347 422.141 392.814 429.607 411.647 428.441C438.447 429.641 484.814 422.941 504.647 419.441C559.047 412.241 597.647 421.774 610.147 427.441L614.147 428.441H615.147L615.647 427.941L615.147 426.941C612.747 422.541 595.814 412.441 587.647 407.941C545.247 387.541 507.314 384.441 493.647 385.441C450.847 384.641 431.147 381.774 426.647 380.441C377.047 369.241 339.314 347.107 326.647 337.441C298.247 319.041 278.814 308.107 272.647 304.941C226.647 282.141 179.147 280.774 161.147 282.941Z" fill="black"/>
<defs>
<linearGradient id="paint0_linear_41_544" x1="0" y1="383.157" x2="811.709" y2="383.157" gradientUnits="userSpaceOnUse">
<stop offset="0.413462" stop-color="#3B82F6"/>
<stop offset="1" stop-color="#2DD4BF"/>
</linearGradient>
</defs>
</svg>
