<svg width="813" height="767" viewBox="0 0 813 767" fill="none" xmlns="http://www.w3.org/2000/svg">
<path d="M249.5 766.5C233.5 763.7 230.833 741.667 231.5 731L239.5 697.5C252.3 653.5 254.167 619.167 253.5 607.5C248.7 566.7 215.833 549.5 200 546C168.8 540 150 534.167 144.5 532C66 506 34 449.5 34 449.5C12 424 1.33336 363.333 1.00004 337C-0.999958 297.4 17.8334 250.833 27.5 232.5C35.1 212.5 66.3334 176.5 81 161C97.4 147 127.833 120.5 141 109C161.8 83.4 200.333 56.6667 217 46.5C270.2 12.9 342.5 2.83332 372 1.99998C444.8 -5.20002 520 16.3333 548.5 28C557.3 30.8 604.5 57.1666 627 70C631.4 73.6 680.5 95.1666 704.5 105.5C794.1 149.5 813.833 257.5 812.5 306C811.3 383.2 768.667 435.167 747.5 451.5C703.9 495.5 617.167 513.5 579 517C529 516.2 494.5 542.667 483.5 556L319.5 718.5L279.5 757.5C270.7 767.1 255.833 767.5 249.5 766.5Z" fill="url(#paint0_linear_41_543)"/>
<path d="M687 168.5C743.4 194.1 759.167 236.167 760 254L759.5 255.5L758.5 255C749.7 240.2 726.5 224.833 716 219C680.8 201.4 641.667 195 626.5 194C580.9 191.2 564.5 188.167 562 187L534 180C510.4 175.6 463.5 144.833 443 130C401.8 102 356.167 96.6667 338.5 97.5001C302.9 95.9002 256.667 112.167 238 120.5L235 122L233.5 121.5L232.5 121L233.5 119.5C244.3 109.9 256.333 100.833 261 97.5001C293 73.9001 333.5 61.3813 337 60.5C392.6 46.5 437.667 59.6668 452.5 67.5001C470.5 74.3001 518 108 539.5 124C560.3 138 591.5 146.167 604.5 148.5C651.7 154.1 679.167 164.167 687 168.5Z" fill="white"/>
<path d="M663 287.5C722.2 317.5 723 368.667 716 390.5L715 391.5H713L712 390.5C704 365.3 668.667 341.333 652 332.5C619.2 316.9 584.667 314 571.5 314.5C501.9 318.5 461.833 309.167 450.5 304C417.7 293.2 363.167 260.5 340 245.5C298.8 216.3 241.167 210.333 217.5 211C163.1 207.4 109.5 234.5 89.5 248.5L87.5 250H86.5L85.5 249L98 233C131.6 189 191.667 170.333 217.5 166.5C281.5 154.9 344.5 177.333 368 190C383.2 199.6 437.333 229.333 462.5 243C495.7 263 549 267.667 571.5 267.5C615.9 266.7 651 280.5 663 287.5Z" fill="white"/>
<path d="M179.5 469C143.5 437 89.5 423.667 67 421L66 420.5V419.5L67 418.5C70.2 415.7 84.6667 410.667 91.5 408.5C111.1 401.7 138.667 403.667 150 405.5C174.8 407.9 210.333 426.5 225 435.5C258.6 464.3 309.667 481.167 331 486C353.8 492.4 394.833 489.333 412.5 487L413.5 486.5L415 486H417.5L418 486.5V487.5L417 488.5L413 491.5C400.6 500.3 375.833 509.167 365 512.5C317.4 525.3 276.833 517.833 262.5 512.5C225.3 500.9 191.667 478.667 179.5 469Z" fill="white"/>
<path d="M162 283.5C98.4 287.5 57.8333 333.833 45.5 356.5L45 357.5L45.5 358H46.5L47.5 357.5L52 354.5C77.2 339.7 105.5 334 116.5 333C144.9 328.2 177.333 334.333 190 338C219.6 344 263.667 370.833 282 383.5C341.2 422.7 393.667 430.167 412.5 429C439.3 430.2 485.667 423.5 505.5 420C559.9 412.8 598.5 422.333 611 428L615 429H616L616.5 428.5L616 427.5C613.6 423.1 596.667 413 588.5 408.5C546.1 388.1 508.167 385 494.5 386C451.7 385.2 432 382.333 427.5 381C377.9 369.8 340.167 347.667 327.5 338C299.1 319.6 279.667 308.667 273.5 305.5C227.5 282.7 180 281.333 162 283.5Z" fill="white"/>
<defs>
<linearGradient id="paint0_linear_41_543" x1="0.852539" y1="383.717" x2="812.562" y2="383.717" gradientUnits="userSpaceOnUse">
<stop offset="0.413462" stop-color="#3B82F6"/>
<stop offset="1" stop-color="#2DD4BF"/>
</linearGradient>
</defs>
</svg>
